<svg width="496" height="94" viewBox="0 0 496 94" fill="none" xmlns="http://www.w3.org/2000/svg">
<rect y="12" width="496" height="59" fill="url(#paint0_linear_5705_7921)"/>
<path fill-rule="evenodd" clip-rule="evenodd" d="M266.061 2H284.209L279.944 17.6703H261.796L266.061 2ZM267.593 4.02198L264.429 15.6484H278.412L281.577 4.02198H267.593ZM296.658 2H314L293.78 77.8242H276.439L296.658 2ZM298.198 4.02198L279.057 75.8022H292.24L311.382 4.02198H298.198ZM103.494 4.52747H119.738L131.2 77.8242H113.288L111.079 61.9517H82.7638L72.1203 77.8242H53L103.494 4.52747ZM104.545 6.54945L56.8369 75.8022H71.053L81.6966 59.9297H112.825L115.034 75.8022H128.851L118.022 6.54945H104.545ZM233.773 28.8737C238.642 23.2188 244.402 19.9927 252.052 20.6054L253.257 20.7019L248.423 38.6989H246.851C241.984 38.6989 237.736 40.1003 234.255 43.1401C230.76 46.1918 227.956 50.9685 226.133 57.8645L226.132 57.8665L220.812 77.8242H203.472L218.366 21.6132H235.71L233.773 28.8737ZM250.678 22.5585C242.981 22.3887 237.375 26.6627 232.317 34.1134L230.519 33.2807L233.091 23.6352H219.909L206.086 75.8022H219.271L224.192 57.3443C226.084 50.1876 229.053 45.006 232.939 41.6126C236.838 38.2074 241.576 36.6769 246.851 36.6769H246.886L250.678 22.5585ZM166.981 25.5474C170.917 22.4255 175.061 20.6022 180.296 20.6022C186.422 20.6022 191.867 22.8478 195.777 27.0512C199.684 31.2518 201.985 37.3277 201.985 44.8659C201.985 55.0442 198.062 63.6918 192.051 69.7434C186.361 75.4727 178.883 78.8352 171.259 78.8352C166.897 78.8352 163.382 77.9185 160.484 76.2647C158.228 74.9767 156.383 73.2633 154.817 71.2553L148.837 94H131.494L150.707 21.6132H168.059L166.981 25.5474ZM180.296 22.6242C174.614 22.6242 170.329 24.9822 165.82 29.2265L163.22 31.6737L165.422 23.6352H152.249L134.11 91.978H147.291L153.993 66.4873L155.228 68.3704C156.922 70.9527 158.922 73.049 161.475 74.5056C164.024 75.9606 167.187 76.8132 171.259 76.8132C178.295 76.8132 185.276 73.7054 190.631 68.3137C196.268 62.6379 199.977 54.5031 199.977 44.8659C199.977 37.7448 197.809 32.1944 194.311 28.4334C190.815 24.6753 185.919 22.6242 180.296 22.6242ZM107.563 21.0608L111.297 48.2022H89.5918L107.563 21.0608ZM261.137 21.6132H278.479L263.48 77.8242H246.139L261.137 21.6132ZM262.677 23.6352L248.758 75.8022H261.941L275.86 23.6352H262.677ZM93.3442 46.1802H108.992L106.3 26.614L93.3442 46.1802ZM173.97 35.5648C170.459 35.5648 166.99 37.1477 164.238 39.9193C160.803 43.3773 158.708 48.0771 158.708 53.3582C158.708 56.5496 159.822 59.1626 161.658 60.9774C163.496 62.7943 166.121 63.8725 169.251 63.8725C172.662 63.8725 176.131 62.289 178.783 59.6192C182.009 56.3712 184.212 51.5733 184.212 45.8769C184.212 42.5541 183.18 40.0019 181.448 38.281C179.715 36.558 177.176 35.5648 173.97 35.5648ZM162.818 38.4895C165.889 35.3974 169.85 33.5429 173.97 33.5429C177.592 33.5429 180.677 34.6728 182.859 36.8421C185.044 39.0134 186.22 42.1228 186.22 45.8769C186.22 52.1103 183.805 57.4222 180.203 61.0489C177.231 64.0407 173.27 65.8945 169.251 65.8945C165.653 65.8945 162.504 64.6474 160.251 62.4204C157.996 60.1912 156.7 57.0416 156.7 53.3582C156.7 47.5185 159.022 42.3106 162.818 38.4895Z" fill="white"/>
<path d="M321.158 72.0001H373.658L377.258 58.7001H347.858L369.458 43.9C381.958 35.2 385.958 28.9 385.958 20.3C385.958 9.00005 376.558 1.00005 362.058 1.00005C350.958 1.00005 342.058 6.00005 335.258 13.7001L344.658 23.5C350.158 18.2 355.258 14.8 361.358 14.8C366.758 14.8 370.158 17.4 370.158 22C370.158 26.5 366.758 30.3 359.958 35L324.558 59.4001L321.158 72.0001Z" fill="white"/>
<path d="M409.884 73.2001C419.584 73.2001 427.984 69.3 434.484 62.8C443.484 53.8 448.484 40.9 448.484 28.3C448.484 18 445.984 11.8 441.284 7.10005C437.084 2.90005 429.684 0.800049 422.984 0.800049C414.584 0.800049 407.284 4.00005 401.884 9.40005C396.984 14.3 393.984 21 393.984 28.4C393.984 41.5 403.584 48.2001 415.284 48.2001C421.884 48.2001 428.184 45.4001 431.184 42.4001C429.784 46.7001 427.384 50.7 424.384 53.7C420.484 57.6 416.084 59.4001 410.684 59.4001C404.784 59.4001 400.384 57 395.884 53.2001L386.884 64.3C393.284 70 401.184 73.2001 409.884 73.2001ZM420.184 35.8C413.984 35.8 409.484 32.5 409.484 26.4C409.484 23.1 410.784 20 413.084 17.7C415.484 15.3 418.884 13.8 423.084 13.8C426.684 13.8 429.384 14.9 431.284 16.8C432.884 18.4 433.784 20.9 433.784 23.4C433.784 26.6 432.484 29.7 430.284 31.9C427.884 34.3 424.384 35.8 420.184 35.8Z" fill="white"/>
<defs>
<linearGradient id="paint0_linear_5705_7921" x1="605.741" y1="0.832139" x2="540.015" y2="248.757" gradientUnits="userSpaceOnUse">
<stop stop-color="#12C2EA"/>
<stop offset="1" stop-color="#7C00FA"/>
</linearGradient>
</defs>
</svg>
