<svg width="431" height="193" viewBox="0 0 431 193" fill="none" xmlns="http://www.w3.org/2000/svg">
<path d="M0.237305 87.9999H60.5973L65.1573 71.1999H23.2773L41.2773 3.9999H22.7973L0.237305 87.9999Z" fill="white"/>
<path d="M93.4745 89.1999C101.034 89.1999 107.514 86.0799 112.674 80.5599L110.754 87.9999H128.394L137.874 52.4799C138.714 49.2399 139.314 46.1199 139.314 42.7599C139.314 30.1599 130.554 22.9599 113.274 22.9599C104.154 22.9599 95.9945 24.7599 89.3945 27.5199L92.2745 41.9199C96.9545 39.9999 103.194 38.4399 109.434 38.4399C118.434 38.4399 121.554 41.5599 121.554 45.9999C121.554 47.9199 121.194 49.3599 120.834 50.7999L120.594 51.6399C115.194 49.9599 109.434 48.7599 102.474 48.7599C93.5945 48.7599 85.9145 51.3999 80.8745 56.4399C77.0345 60.2799 74.7545 65.4399 74.7545 71.9199C74.7545 81.9999 82.3145 89.1999 93.4745 89.1999ZM101.274 76.7199C96.1145 76.7199 92.8745 73.8399 92.8745 69.8799C92.8745 67.2399 93.8345 65.0799 95.5145 63.3999C97.7945 61.1199 101.514 59.7999 105.954 59.7999C110.394 59.7999 114.834 60.8799 117.954 62.0799L117.474 63.7599C115.434 70.7199 108.834 76.7199 101.274 76.7199Z" fill="white"/>
<path d="M168.341 89.1999C175.541 89.1999 181.301 85.3599 185.861 81.2799L184.061 87.9999H202.301L219.461 23.6799H201.221L191.501 59.7999C189.461 67.4799 184.781 72.6399 177.581 72.6399C171.941 72.6399 168.701 69.8799 168.701 64.7199C168.701 63.1599 169.061 60.7599 169.541 58.9599L179.021 23.6799H160.781L151.541 58.2399C150.461 62.3199 149.381 66.8799 149.381 70.4799C149.381 82.1199 156.821 89.1999 168.341 89.1999Z" fill="white"/>
<path d="M218.75 87.9999H236.99L246.71 51.8799C248.75 44.1999 253.43 39.0399 260.63 39.0399C266.27 39.0399 269.51 41.7999 269.51 46.9599C269.51 48.5199 269.15 50.9199 268.67 52.7199L259.19 87.9999H277.43L286.67 53.4399C287.75 49.3599 288.83 44.7999 288.83 41.1999C288.83 29.5599 281.39 22.4799 269.87 22.4799C262.67 22.4799 256.91 26.3199 252.35 30.3999L254.15 23.6799H235.91L218.75 87.9999Z" fill="white"/>
<path d="M328.447 89.4399C339.367 89.4399 346.207 85.4799 352.927 79.4799L343.567 67.5999C338.767 71.6799 334.687 73.9599 329.047 73.9599C321.967 73.9599 316.447 68.6799 316.447 60.3999C316.447 53.7999 319.207 47.5599 323.407 43.3599C326.647 40.1199 330.727 38.0799 334.927 38.0799C342.127 38.0799 345.607 41.5599 348.847 46.4799L362.767 36.6399C358.327 28.9599 350.527 22.4799 336.367 22.4799C326.047 22.4799 316.447 26.7999 309.487 33.7599C302.647 40.5999 298.447 49.9599 298.447 60.3999C298.447 77.9199 310.927 89.4399 328.447 89.4399Z" fill="white"/>
<path d="M360.195 87.9999H378.435L388.155 51.8799C390.195 44.1999 394.875 39.0399 402.075 39.0399C407.715 39.0399 410.955 41.7999 410.955 46.9599C410.955 48.5199 410.595 50.9199 410.115 52.7199L400.635 87.9999H418.875L428.115 53.4399C429.195 49.3599 430.275 44.7999 430.275 41.1999C430.275 29.5599 422.835 22.4799 411.315 22.4799C404.115 22.4799 398.355 26.3199 393.795 30.3999L401.715 0.399902H383.475L360.195 87.9999Z" fill="white"/>
<path fill-rule="evenodd" clip-rule="evenodd" d="M51.163 77.5H84.1865C106.039 77.5 119.781 83.4475 128.38 92.0465C136.814 100.48 140.686 111.499 140.686 125.2C140.686 142.134 134.233 157.621 122.14 169.714C108.582 183.271 89.0807 190.5 63.0665 190.5H20.8145L51.163 77.5ZM51.9299 78.5L22.1185 189.5H63.0665C88.8923 189.5 108.111 182.329 121.433 169.006C133.34 157.099 139.686 141.866 139.686 125.2C139.686 111.701 135.879 100.96 127.673 92.7536C119.312 84.3925 105.854 78.5 84.1865 78.5H51.9299ZM268.359 81.82H293.714L287.794 103.74H307.954L302.085 125.54H281.926L272.427 161.161C272.426 161.163 272.426 161.164 272.426 161.165C272.106 162.446 271.801 163.989 271.801 164.88C271.801 166.365 272.279 167.487 273.217 168.252C274.174 169.032 275.682 169.5 277.861 169.5C281.629 169.5 286.201 168.556 290.14 166.822L291.098 166.401L285.163 188.275L284.953 188.373C280.075 190.649 273.761 191.94 267.141 191.94C259.703 191.94 254.097 190.08 250.342 186.965C246.578 183.842 244.721 179.496 244.721 174.64C244.721 171.059 245.373 167.652 246.336 163.799L246.338 163.791L256.57 125.54H246.329L252.198 103.74H262.439L268.359 81.82ZM269.124 82.82L263.204 104.74H252.965L247.634 124.54H257.873L247.307 164.041C247.306 164.043 247.306 164.044 247.305 164.046C246.349 167.87 245.721 171.183 245.721 174.64C245.721 179.224 247.465 183.278 250.981 186.195C254.506 189.12 259.86 190.94 267.141 190.94C273.546 190.94 279.626 189.708 284.32 187.564L289.591 168.137C285.759 169.669 281.472 170.5 277.861 170.5C275.561 170.5 273.789 170.008 272.586 169.028C271.364 168.033 270.801 166.595 270.801 164.88C270.801 163.852 271.137 162.197 271.456 160.919L271.458 160.911L281.157 124.54H301.318L306.649 104.74H286.488L292.408 82.82H269.124ZM69.8836 99.74H82.2665C94.9847 99.74 103.294 102.96 108.38 108.046C112.649 112.315 115.086 118.371 115.086 126.16C115.086 137.164 111.04 147.214 103.74 154.514C94.6625 163.591 80.9213 168.26 65.9465 168.26H51.3735L69.8836 99.74ZM70.6493 100.74L52.6795 167.26H65.9465C80.7317 167.26 94.1904 162.649 103.033 153.806C110.133 146.706 114.086 136.916 114.086 126.16C114.086 118.589 111.724 112.805 107.673 108.754C102.839 103.92 94.8282 100.74 82.2665 100.74H70.6493ZM322.992 116.846C331.88 107.959 344.164 102.14 358.705 102.14C369.936 102.14 378.831 105.778 384.919 111.866C391.005 117.953 394.245 126.447 394.245 136.08C394.245 142.241 392.626 149.187 389.887 155.792L389.759 156.1H331.092C331.562 160.806 333.233 164.682 336.222 167.411C339.325 170.244 343.911 171.9 350.225 171.9C356.498 171.9 362 170.027 368.977 165.111L369.375 164.831L381.149 180.641L380.785 180.944C373.021 187.414 362.189 192.42 347.505 192.42C335.089 192.42 325.033 188.79 318.079 182.121C311.122 175.449 307.325 165.788 307.325 153.84C307.325 140.422 313.142 126.696 322.992 116.846ZM358.705 103.14C344.446 103.14 332.411 108.841 323.699 117.554C314.028 127.224 308.325 140.698 308.325 153.84C308.325 165.572 312.048 174.951 318.771 181.399C325.497 187.85 335.282 191.42 347.505 191.42C361.711 191.42 372.211 186.661 379.78 180.477L369.154 166.208C362.236 171.006 356.629 172.9 350.225 172.9C343.739 172.9 338.885 171.196 335.548 168.149C332.211 165.102 330.454 160.77 330.047 155.64L330.004 155.1H389.09C391.714 148.678 393.245 141.984 393.245 136.08C393.245 126.673 390.085 118.447 384.212 112.574C378.34 106.702 369.714 103.14 358.705 103.14ZM164.369 108.899C173.231 105.193 184.177 102.78 196.401 102.78C207.98 102.78 216.786 105.191 222.708 109.785C228.65 114.395 231.621 121.153 231.621 129.68C231.621 134.221 230.81 138.427 229.685 142.765L229.685 142.769L216.946 190.5H192.396L194.648 181.772C187.908 188.381 179.599 192.1 170.001 192.1C162.453 192.1 156.086 189.664 151.601 185.486C147.113 181.306 144.541 175.411 144.541 168.56C144.541 159.792 147.631 152.783 152.848 147.566C159.687 140.727 170.07 137.18 182.001 137.18C191.133 137.18 198.726 138.72 205.821 140.892L205.998 140.27C206.477 138.355 206.941 136.489 206.941 134C206.941 131.173 205.958 128.82 203.575 127.149C201.157 125.456 197.24 124.42 191.281 124.42C183.038 124.42 174.783 126.483 168.591 129.023L168.03 129.253L163.991 109.057L164.369 108.899ZM165.132 109.665L168.773 127.87C174.995 125.396 183.133 123.42 191.281 123.42C197.323 123.42 201.485 124.464 204.148 126.331C206.845 128.22 207.941 130.907 207.941 134C207.941 136.622 207.449 138.591 206.97 140.509L206.967 140.521L206.965 140.529L206.502 142.149L206.013 141.997C198.848 139.768 191.219 138.18 182.001 138.18C170.253 138.18 160.156 141.673 153.555 148.274C148.532 153.297 145.541 160.048 145.541 168.56C145.541 175.149 148.01 180.774 152.282 184.754C156.557 188.736 162.67 191.1 170.001 191.1C179.929 191.1 188.441 187.008 195.236 179.739L196.086 180.205L193.687 189.5H216.177L228.717 142.515C228.718 142.514 228.717 142.515 228.717 142.515C229.833 138.213 230.621 134.099 230.621 129.68C230.621 121.407 227.753 114.965 222.095 110.575C216.417 106.169 207.863 103.78 196.401 103.78C184.48 103.78 173.803 106.099 165.132 109.665ZM356.785 122.66C350.208 122.66 344.412 125.32 340.019 129.714C337.195 132.537 335.069 135.929 333.511 139.9H369.689C370.098 138.419 370.365 136.677 370.365 134.8C370.365 131.376 369.355 128.357 367.192 126.194C365.03 124.032 361.652 122.66 356.785 122.66ZM339.312 129.006C343.878 124.44 349.923 121.66 356.785 121.66C361.839 121.66 365.501 123.088 367.899 125.486C370.295 127.883 371.365 131.184 371.365 134.8C371.365 136.93 371.038 138.898 370.544 140.544L370.437 140.9H332.067L332.316 140.226C333.938 135.849 336.214 132.105 339.312 129.006ZM186.641 152.9C180.809 152.9 175.994 154.635 173.075 157.554C170.928 159.701 169.701 162.454 169.701 165.84C169.701 168.334 170.717 170.472 172.542 171.996C174.373 173.526 177.052 174.46 180.401 174.46C190.218 174.46 198.851 166.649 201.521 157.541C201.521 157.54 201.522 157.54 201.522 157.539L202.034 155.745C197.947 154.228 192.289 152.9 186.641 152.9ZM172.368 156.846C175.529 153.685 180.634 151.9 186.641 151.9C192.634 151.9 198.616 153.356 202.821 154.973L203.248 155.138L202.482 157.817L202.481 157.821C199.711 167.272 190.744 175.46 180.401 175.46C176.871 175.46 173.95 174.474 171.901 172.764C169.846 171.048 168.701 168.626 168.701 165.84C168.701 162.186 170.035 159.179 172.368 156.846Z" fill="white"/>
</svg>
