<svg width="123" height="58" viewBox="0 0 123 58" fill="none" xmlns="http://www.w3.org/2000/svg">
<circle cx="28.7451" cy="28.7451" r="28.7451" fill="url(#paint0_linear_5705_7907)"/>
<path d="M71.8127 35.064V36.9705H69V20H71.8127V26.7422C72.7203 25.4633 73.9977 24.4408 75.9971 24.4408C78.8806 24.4408 81.6933 26.7187 81.6933 30.8103V30.8589C81.6933 34.9284 78.9027 37.2284 75.9971 37.2284C73.9521 37.2254 72.6732 36.2029 71.8127 35.064ZM78.8334 30.8589V30.8132C78.8334 28.4425 77.2289 26.8837 75.3238 26.8837C73.4187 26.8837 71.742 28.4617 71.742 30.8103V30.8589C71.742 33.2075 73.4158 34.7884 75.3223 34.7884C77.2525 34.7855 78.8334 33.2738 78.8334 30.8589Z" fill="#E7E7E7"/>
<path d="M84.7598 20H87.5725V36.9705H84.7598V20Z" fill="#E7E7E7"/>
<path d="M90.4316 33.4376V33.3905C90.4316 30.7384 92.4944 29.4389 95.5001 29.4389C96.6208 29.4278 97.7357 29.6005 98.8005 29.9501V29.6481C98.8005 27.9051 97.7308 26.9753 95.755 26.9753C94.3833 26.9753 93.3607 27.2774 92.2454 27.7415L91.5087 25.5314C92.9544 24.8499 94.537 24.5081 96.1351 24.5325C97.971 24.5325 99.3427 25.0202 100.203 25.9042C101.109 26.7882 101.529 28.0892 101.529 29.6938V36.9694H98.7769V35.437C97.9401 36.436 96.6626 37.2257 94.7796 37.2257C92.4782 37.2257 90.4316 35.9012 90.4316 33.4376ZM98.8477 32.5536V31.7167C97.9536 31.3849 97.0063 31.2196 96.0526 31.229C94.2404 31.229 93.1707 31.9967 93.1707 33.2741V33.3212C93.1707 34.5 94.2168 35.1807 95.5649 35.1807C97.4288 35.1807 98.8521 34.111 98.8521 32.5536H98.8477Z" fill="#E7E7E7"/>
<path d="M103.893 35.3654L105.148 33.4603C106.496 34.4592 107.913 34.9705 109.169 34.9705C110.378 34.9705 111.075 34.4592 111.075 33.6445V33.5973C111.075 32.644 109.774 32.3184 108.332 31.8779C106.52 31.3666 104.501 30.6225 104.501 28.2739V28.2283C104.501 25.9033 106.431 24.4844 108.871 24.4844C110.476 24.5144 112.04 24.9982 113.381 25.8797L112.261 27.8805C111.083 27.1601 109.82 26.718 108.797 26.718C107.704 26.718 107.077 27.2293 107.077 27.9262V27.9734C107.077 28.8795 108.403 29.2523 109.844 29.7164C111.634 30.2748 113.655 31.0881 113.655 33.2967V33.3439C113.655 35.9238 111.657 37.2027 109.1 37.2027C107.209 37.1779 105.38 36.5323 103.893 35.3654V35.3654Z" fill="#E7E7E7"/>
<path d="M116.886 33.574V27.1117H115.328V24.6939H116.886V21.3242H119.698V24.6939H123V27.1117H119.698V33.1335C119.698 34.2252 120.257 34.6673 121.21 34.6673C121.816 34.6684 122.414 34.5239 122.953 34.2459V36.5473C122.181 36.9837 121.305 37.2007 120.419 37.175C118.35 37.1779 116.886 36.2718 116.886 33.574Z" fill="#E7E7E7"/>
<path d="M46 25.0667C46 21.2 42.9195 18 39.0524 18H31.8427C31.6461 18 31.4494 18.1333 31.3839 18.2667L28.6966 23L22.2734 34.3333H18.0131C17.2266 34.3333 16.6367 33.6667 16.6367 32.9333C16.6367 32.5333 16.7678 32.2667 16.8989 32.0667L18.8652 29.3333C18.9963 29.1333 18.9963 28.8667 18.8652 28.6667L16.8333 25.9333C16.7022 25.7333 16.5712 25.4667 16.5712 25.0667C16.5712 24.2667 17.2266 23.6667 17.9476 23.6667H22.2734L24.633 27.8L27.8446 22.1333L25.6816 18.2667C25.5506 18.1333 25.3539 18 25.1573 18H17.9476C14.1461 18 11 21.2 11 25.0667C11 26.4667 11.3933 27.8 12.1798 29C11.3933 30.1333 11 31.5333 11 32.9333C11 36.8 14.1461 40 17.9476 40H25.1573C25.3539 40 25.5506 39.8667 25.6161 39.7333L28.5 34.6667L34.7266 23.6667H38.9869C39.7734 23.6667 40.3633 24.3333 40.3633 25.0667C40.3633 25.4667 40.2322 25.7333 40.1011 25.9333L38.2004 28.6667C38.0693 28.8667 38.0693 29.1333 38.2004 29.3333L40.2322 32.0667C40.3633 32.2667 40.4944 32.5333 40.4944 32.9333C40.4944 33.7333 39.839 34.3333 39.118 34.3333H34.7921L32.4326 30.2L29.221 35.8667L31.3839 39.7333C31.4494 39.8667 31.6461 40 31.8427 40H39.0524C42.9195 40 46 36.8 46 32.9333C46 31.5333 45.6067 30.2 44.8202 29C45.6067 27.8667 46 26.4667 46 25.0667Z" fill="white"/>
<defs>
<linearGradient id="paint0_linear_5705_7907" x1="0.413507" y1="-60.1904" x2="-35.9839" y2="43.8815" gradientUnits="userSpaceOnUse">
<stop stop-color="#12C2EA"/>
<stop offset="1" stop-color="#7C00FA"/>
</linearGradient>
</defs>
</svg>
