<svg width="424" height="165" viewBox="0 0 424 165" fill="none" xmlns="http://www.w3.org/2000/svg">
<path d="M484 97.9697C484 44.3636 441.401 0 387.925 0H288.225C285.506 0 282.786 1.84848 281.88 3.69697L244.719 69.3182L155.895 226.439H96.9813C86.1049 226.439 77.9476 217.197 77.9476 207.03C77.9476 201.485 79.7603 197.788 81.573 195.015L108.764 157.121C110.577 154.348 110.577 150.652 108.764 147.879L80.6667 109.985C78.8539 107.212 77.0412 103.515 77.0412 97.9697C77.0412 86.8788 86.1049 78.5606 96.0749 78.5606H155.895L188.524 135.864L232.936 57.303L203.026 3.69697C201.213 1.84848 198.494 0 195.775 0H96.0749C43.5056 0 0 44.3636 0 97.9697C0 117.379 5.4382 135.864 16.3146 152.5C5.4382 168.212 0 187.621 0 207.03C0 260.636 43.5056 305 96.0749 305H195.775C198.494 305 201.213 303.151 202.12 301.303L242 231.061L328.105 78.5606H387.019C397.895 78.5606 406.052 87.803 406.052 97.9697C406.052 103.515 404.24 107.212 402.427 109.985L376.142 147.879C374.33 150.652 374.33 154.348 376.142 157.121L404.24 195.015C406.052 197.788 407.865 201.485 407.865 207.03C407.865 218.121 398.802 226.439 388.831 226.439H329.011L296.382 169.136L251.97 247.697L281.88 301.303C282.786 303.151 285.506 305 288.225 305H387.925C441.401 305 484 260.636 484 207.03C484 187.621 478.562 169.136 467.685 152.5C478.562 136.788 484 117.379 484 97.9697Z" fill="url(#paint0_linear_6866_45712)"/>
<defs>
<linearGradient id="paint0_linear_6866_45712" x1="3.48125" y1="-319.325" x2="-126.76" y2="271.631" gradientUnits="userSpaceOnUse">
<stop stop-color="#12C2EA"/>
<stop offset="1" stop-color="#7C00FA"/>
</linearGradient>
</defs>
</svg>
