<svg width="227" height="57" viewBox="0 0 227 57" fill="none" xmlns="http://www.w3.org/2000/svg">
<g clip-path="url(#clip0_6866_45739)">
<path d="M90.9139 18.1004C90.9057 13.3057 88.9974 8.70976 85.607 5.3194C82.2167 1.92905 77.6207 0.0207177 72.826 0.0124724H54.1144C53.874 0.0127316 53.638 0.0762742 53.4299 0.196712C53.2219 0.317149 53.0493 0.490234 52.9294 0.698564L45.9905 12.7177L29.281 41.7207L29.2342 41.6926H18.0883C17.1245 41.6926 16.2 41.3099 15.5182 40.6287C14.8363 39.9474 14.4529 39.0233 14.452 38.0594C14.4484 37.282 14.698 36.5244 15.1631 35.9014L20.3587 28.9063C20.5348 28.6703 20.63 28.3837 20.63 28.0893C20.63 27.7948 20.5348 27.5082 20.3587 27.2722L15.1631 20.2772C14.698 19.6541 14.4484 18.8966 14.452 18.1191C14.45 17.6401 14.5425 17.1654 14.7243 16.7223C14.9061 16.2791 15.1735 15.8762 15.5114 15.5367C15.8492 15.1971 16.2507 14.9276 16.6929 14.7435C17.1351 14.5594 17.6093 14.4645 18.0883 14.4641H29.2529L35.3092 24.9551L43.6609 10.4785L38.0068 0.686092C37.8872 0.477549 37.7146 0.30429 37.5065 0.18382C37.2984 0.0633514 37.0622 -5.77487e-05 36.8218 3.94638e-08H18.0883C14.82 0.000927996 11.6129 0.886632 8.80725 2.56313C6.00165 4.23963 3.70224 6.64438 2.153 9.52221C0.603769 12.4 -0.137489 15.6436 0.00788241 18.9087C0.153253 22.1738 1.17983 25.3387 2.97869 28.0674C1.1743 30.7951 0.1432 33.9609 -0.00488256 37.228C-0.152965 40.4951 0.587508 43.7412 2.13774 46.6209C3.68797 49.5006 5.98995 51.9061 8.7987 53.5814C11.6075 55.2567 14.8179 56.1392 18.0883 56.1349H36.7999C37.0401 56.1356 37.2762 56.0727 37.4844 55.9528C37.6925 55.8329 37.8652 55.6601 37.985 55.4519L45.4447 42.5315L61.6365 14.436L61.6708 14.4547H72.8011C73.7647 14.4564 74.6883 14.8401 75.3694 15.5218C76.0505 16.2034 76.4334 17.1274 76.4343 18.091C76.4381 18.868 76.1897 19.6253 75.7263 20.2491L70.5432 27.2535C70.3671 27.4895 70.2719 27.7761 70.2719 28.0706C70.2719 28.365 70.3671 28.6516 70.5432 28.8876L75.7419 35.8827C76.2059 36.5061 76.4544 37.2636 76.4499 38.0407C76.449 39.004 76.066 39.9277 75.3848 40.6089C74.7036 41.29 73.78 41.6731 72.8167 41.6739H61.6646L55.6114 31.1923L47.2691 45.6688L52.9169 55.4706C53.0369 55.6786 53.2097 55.8512 53.4178 55.9711C53.6258 56.091 53.8618 56.1539 54.1019 56.1536H72.8136C77.6085 56.1462 82.2049 54.2381 85.5955 50.8476C88.986 47.457 90.8941 42.8606 90.9015 38.0657C90.9139 34.5165 89.8731 31.0435 87.9107 28.0861C89.8787 25.1285 90.924 21.6529 90.9139 18.1004Z" fill="white"/>
<path d="M118.657 41.6053V45.6408H112.703V9.7207H118.657V23.9914C120.578 21.2845 123.281 19.1202 127.513 19.1202C133.616 19.1202 139.57 23.9415 139.57 32.6019V32.7048C139.57 41.3184 133.663 46.1865 127.513 46.1865C123.185 46.1803 120.478 44.016 118.657 41.6053ZM133.517 32.7048V32.6081C133.517 27.5903 130.121 24.2908 126.088 24.2908C122.056 24.2908 118.507 27.6308 118.507 32.6019V32.7048C118.507 37.6759 122.05 41.0221 126.085 41.0221C130.17 41.0159 133.517 37.8162 133.517 32.7048Z" fill="white"/>
<path d="M146.062 9.7207H152.016V45.6408H146.062V9.7207Z" fill="white"/>
<path d="M158.066 38.1619V38.0621C158.066 32.4487 162.432 29.6981 168.794 29.6981C171.166 29.6746 173.526 30.0402 175.78 30.7802V30.1409C175.78 26.4516 173.516 24.4838 169.334 24.4838C166.43 24.4838 164.266 25.1231 161.905 26.1054L160.346 21.4275C163.406 19.9849 166.756 19.2616 170.139 19.3131C174.024 19.3131 176.928 20.3454 178.749 22.2165C180.667 24.0877 181.556 26.8414 181.556 30.2376V45.6372H175.73V42.3939C173.959 44.5083 171.255 46.1799 167.269 46.1799C162.398 46.1799 158.066 43.3762 158.066 38.1619ZM175.88 36.2908V34.5194C173.987 33.817 171.982 33.4671 169.964 33.4872C166.128 33.4872 163.864 35.112 163.864 37.8158V37.9156C163.864 40.4105 166.078 41.8512 168.932 41.8512C172.877 41.8512 175.889 39.5871 175.889 36.2908H175.88Z" fill="white"/>
<path d="M186.555 42.2438L189.212 38.2114C192.065 40.3258 195.065 41.408 197.722 41.408C200.283 41.408 201.758 40.3258 201.758 38.6012V38.5015C201.758 36.4837 199.004 35.7945 195.951 34.862C192.115 33.7799 187.843 32.205 187.843 27.2339V27.1373C187.843 22.2161 191.928 19.2129 197.092 19.2129C200.489 19.2765 203.799 20.3004 206.638 22.1662L204.268 26.4013C201.773 24.8763 199.101 23.9407 196.937 23.9407C194.623 23.9407 193.294 25.0228 193.294 26.4979V26.5977C193.294 28.5157 196.101 29.3047 199.151 30.2871C202.94 31.469 207.219 33.1905 207.219 37.8653V37.9651C207.219 43.4257 202.99 46.1327 197.576 46.1327C193.575 46.0802 189.702 44.7138 186.555 42.2438Z" fill="white"/>
<path d="M214.058 38.4554V24.7772H210.762V19.6596H214.058V12.5273H220.011V19.6596H227V24.7772H220.011V37.523C220.011 39.8338 221.193 40.7694 223.211 40.7694C224.495 40.7718 225.76 40.4659 226.9 39.8775V44.7487C225.267 45.6723 223.412 46.1317 221.536 46.0773C217.158 46.0835 214.058 44.1656 214.058 38.4554Z" fill="white"/>
</g>
<defs>
<clipPath id="clip0_6866_45739">
<rect width="227" height="56.138" fill="white"/>
</clipPath>
</defs>
</svg>
