<svg width="287" height="89" viewBox="0 0 287 89" fill="none" xmlns="http://www.w3.org/2000/svg">
<g filter="url(#filter0_b_214_18199)">
<rect width="287" height="89" rx="18" fill="url(#paint0_linear_214_18199)" fill-opacity="0.1"/>
</g>
<path d="M99.7776 24.1358C95.6936 24.866 92.4077 27.8887 91.3718 31.8624C90.9982 33.2973 90.9727 34.1379 91.0152 45.2692C91.0407 55.492 91.0491 55.7298 91.219 56.5194C92.1614 60.7732 95.1841 63.8044 99.4804 64.8063C100.041 64.9337 100.754 64.9592 105.347 64.9846C110.102 65.0186 110.595 65.0101 110.722 64.8827C110.849 64.7554 110.858 63.1167 110.858 44.539C110.858 30.7671 110.832 24.2802 110.773 24.1613C110.688 24.0085 110.544 24 105.568 24.0085C101.527 24.017 100.313 24.0424 99.7776 24.1358ZM107.462 44.5135V61.7157L104.006 61.6733C100.822 61.6393 100.482 61.6223 99.8455 61.461C97.1115 60.7563 95.0822 58.6506 94.5134 55.9081C94.3266 55.0505 94.3266 33.9256 94.5049 33.0851C95.0143 30.6992 96.67 28.7208 98.903 27.8293C100.024 27.3793 100.542 27.3284 104.176 27.3199L107.462 27.3114V44.5135Z" fill="white"/>
<path d="M100.508 32.4993C99.9727 32.6011 99.1576 33.0087 98.7246 33.3908C97.833 34.1634 97.3915 35.2587 97.4594 36.5493C97.4934 37.2201 97.5359 37.3984 97.8076 37.9418C98.2066 38.7654 98.8095 39.3682 99.6331 39.7758C100.202 40.056 100.346 40.0899 101.085 40.1154C101.756 40.1409 101.993 40.1154 102.443 39.9626C104.286 39.3428 105.398 37.5512 105.084 35.7172C104.719 33.5351 102.647 32.0747 100.508 32.4993Z" fill="white"/>
<path d="M114.993 24.0594C114.959 24.0849 114.934 33.2888 114.934 44.5135C114.934 63.0317 114.942 64.9082 115.069 64.9591C115.299 65.044 121.887 65.0101 122.703 64.9252C126.15 64.5346 129.189 62.4374 130.845 59.3213C131.057 58.9222 131.338 58.2515 131.482 57.8354C132.017 56.2392 132 56.6637 132 44.4626C132 34.7237 131.983 33.2718 131.864 32.652C131.023 28.2283 127.653 24.8915 123.221 24.1273C122.626 24.0254 121.709 23.9999 118.754 23.9999C116.717 23.9999 115.019 24.0254 114.993 24.0594ZM124.061 42.5521C125.386 42.9003 126.472 43.9107 126.914 45.2012C127.194 45.9994 127.186 47.1711 126.905 47.9013C126.388 49.2428 125.369 50.1853 124.061 50.5334C121.938 51.0853 119.68 49.8032 119.06 47.6975C118.873 47.0522 118.882 45.9654 119.094 45.3031C119.731 43.2229 121.938 42.0002 124.061 42.5521Z" fill="white"/>
<path fill-rule="evenodd" clip-rule="evenodd" d="M68.5553 55.8491C67.5786 57.0944 65.1858 57.9828 65.1858 57.9828L47.385 64.4445V59.6791L60.4851 54.9619C61.9718 54.4236 62.2 53.6627 60.9917 53.2633C59.7856 52.8627 57.6016 52.9775 56.1139 53.5181L47.385 56.625V51.6794L47.8881 51.5072C47.8881 51.5072 50.4104 50.6051 53.9572 50.208C57.504 49.8132 61.8468 50.2619 65.2562 51.5681C69.0982 52.795 69.5309 54.6038 68.5553 55.8491ZM49.0794 47.7346V35.548C49.0794 34.1168 48.8182 32.7992 47.4895 32.4262C46.4719 32.0968 45.8404 33.0517 45.8404 34.4818V65L37.6964 62.3878V26C41.1591 26.6496 46.2039 28.1853 48.9159 29.1092C55.8129 31.5022 58.1513 34.4806 58.1513 41.1914C58.1513 47.7323 54.1559 50.2114 49.0794 47.7346V47.7346ZM22.753 59.181C18.8088 58.0585 18.1524 55.7194 19.9502 54.372C21.6117 53.1278 24.4373 52.1913 24.4373 52.1913L36.1144 47.9952V52.7789L27.7114 55.8181C26.2271 56.3564 25.9988 57.1185 27.2049 57.5179C28.4122 57.9173 30.5972 57.8037 32.0838 57.2643L36.1144 55.786V60.0659C35.8589 60.1118 35.5738 60.1577 35.3103 60.2025C31.2786 60.8682 26.9846 60.5904 22.753 59.181V59.181ZM65.9614 61.0759C66.4713 61.0759 66.9495 61.2756 67.3095 61.644C67.6695 62.0067 67.8682 62.4911 67.8682 63.0052C67.8682 63.5217 67.6695 64.0038 67.3095 64.3664C66.9495 64.7326 66.4713 64.9323 65.9614 64.9323C65.4515 64.9323 64.9745 64.7326 64.6134 64.3664C64.2533 64.0038 64.0557 63.5217 64.0557 63.0052C64.0557 61.9424 64.9098 61.0759 65.9614 61.0759ZM64.376 63.0052C64.376 63.4333 64.5407 63.8362 64.8405 64.1369C65.1392 64.4422 65.5389 64.6075 65.9614 64.6075C66.837 64.6075 67.5468 63.889 67.5468 63.0052C67.5468 62.576 67.3833 62.1731 67.0823 61.8713C66.7837 61.566 66.3839 61.4019 65.9614 61.4019C65.5389 61.4019 65.1392 61.566 64.8405 61.8713C64.5407 62.1731 64.376 62.576 64.376 63.0052V63.0052ZM66.5372 61.9665C66.7462 62.0595 66.8518 62.2386 66.8518 62.4933C66.8518 62.6242 66.8245 62.7344 66.7689 62.8205C66.7292 62.8824 66.6724 62.9329 66.6088 62.9765C66.6587 63.0064 66.703 63.042 66.736 63.0833C66.7814 63.143 66.8075 63.2382 66.8109 63.3679L66.8211 63.6422C66.8246 63.7157 66.8291 63.7719 66.8405 63.8064C66.8518 63.8569 66.8734 63.889 66.9007 63.8993L66.929 63.9131V63.9441V63.9912V64.0382H66.8825H66.5452H66.5179L66.5043 64.0141C66.4929 63.9912 66.485 63.9648 66.477 63.9303C66.4714 63.8993 66.4657 63.8454 66.4623 63.7628L66.4452 63.4219C66.4407 63.3037 66.4009 63.2302 66.326 63.1912C66.2794 63.1694 66.2022 63.1591 66.0977 63.1591H65.5196V63.9912V64.0382H65.4719H65.1971H65.1505V63.9912V61.9402V61.8931H65.1971H66.1363C66.2976 61.8931 66.4327 61.9172 66.5372 61.9666L66.5372 61.9665ZM65.5196 62.8308H66.1079C66.226 62.8308 66.3203 62.809 66.3873 62.7642C66.4486 62.7195 66.4782 62.638 66.4782 62.5197C66.4782 62.3912 66.4361 62.3074 66.3476 62.2627C66.2987 62.2386 66.2306 62.2248 66.1443 62.2248H65.5196V62.8308Z" fill="white"/>
<path d="M222.697 50.12C222.777 50.1429 222.823 50.1659 222.88 50.1888C225.349 51.2202 227.806 52.2515 230.275 53.2829C230.389 53.3287 230.457 53.3975 230.492 53.5236C230.732 54.5893 231.235 55.5061 231.989 56.2854C232.869 57.1907 233.943 57.7522 235.189 57.947C238.343 58.4513 241.246 56.2395 241.726 53.1454C241.783 52.8016 241.783 52.4578 241.795 52.1026C241.795 51.965 241.841 51.8848 241.944 51.8161C244.058 50.2919 246.172 48.7792 248.275 47.2436C248.549 47.0488 248.812 46.9571 249.155 46.9457C250.961 46.8769 252.561 46.2237 253.91 45.0204C255.224 43.8401 256.058 42.3732 256.378 40.6314C256.767 38.4425 256.321 36.4256 255.007 34.6379C253.841 33.0335 252.264 32.0022 250.309 31.6355C247.864 31.1771 245.681 31.7844 243.806 33.4346C242.469 34.6035 241.658 36.0933 241.349 37.8466C241.269 38.2592 241.258 38.6832 241.223 39.0957C241.212 39.2447 241.189 39.3822 241.098 39.5198C239.566 41.7659 238.035 44.012 236.503 46.2581C236.423 46.3727 236.343 46.4185 236.195 46.4071C235.029 46.3841 233.943 46.6936 232.972 47.3353C232.869 47.4041 232.789 47.3926 232.686 47.3468C230.503 46.43 228.309 45.5132 226.126 44.5964C224.812 44.0464 223.497 43.4963 222.183 42.9462C222.126 42.9233 222.069 42.8889 222 42.866C222.011 42.6597 222.034 42.4649 222.046 42.2701C222.251 40.4022 222.686 38.5915 223.394 36.8496C224.572 33.9159 226.32 31.3833 228.652 29.2633C231.075 27.063 233.863 25.5274 237.018 24.6794C238.115 24.3814 239.223 24.1981 240.355 24.0835C241.315 23.9918 242.275 23.9803 243.235 24.0262C245.852 24.1637 248.344 24.7825 250.721 25.8941C252.664 26.8109 254.424 28.0027 255.99 29.481C259.03 32.3574 261.018 35.8526 261.956 39.9323C262.356 41.6971 262.516 43.4963 262.447 45.2955C262.333 48.3208 261.601 51.1858 260.218 53.8788C258.31 57.6032 255.521 60.4911 251.864 62.5195C249.864 63.6311 247.727 64.3645 245.464 64.7312C244.126 64.9489 242.778 65.0406 241.418 64.9833C237.703 64.8343 234.286 63.7457 231.189 61.7058C228.252 59.7806 225.966 57.248 224.32 54.1424C223.669 52.9162 223.154 51.6327 222.766 50.3034C222.72 50.2575 222.72 50.2002 222.697 50.12Z" fill="white"/>
<path d="M248.824 34.0649C251.361 34.0764 253.498 35.91 253.887 38.3967C254.287 40.9408 252.801 43.3473 250.378 44.1266C248.127 44.8486 245.647 43.863 244.458 41.7888C243.292 39.749 243.635 37.182 245.304 35.5432C246.23 34.6379 247.338 34.1337 248.63 34.0764C248.71 34.0764 248.79 34.0649 248.824 34.0649ZM245.052 39.1989C245.052 41.3419 246.755 43.0838 248.858 43.0838C250.984 43.0838 252.698 41.3533 252.698 39.2104C252.71 37.0903 250.984 35.3484 248.892 35.337C246.767 35.337 245.052 37.0559 245.052 39.1989Z" fill="white"/>
<path d="M232.263 54.1081C232.514 54.2113 232.754 54.3144 233.006 54.4175C233.566 54.6467 234.114 54.8759 234.663 55.1166C236.469 55.8958 238.56 54.8415 238.995 52.8475C239.326 51.3463 238.537 49.7992 237.109 49.1919C236.355 48.871 235.6 48.5616 234.846 48.2407C234.766 48.2063 234.675 48.172 234.56 48.1147C234.629 48.0803 234.675 48.0574 234.72 48.0459C236.686 47.3698 238.915 48.2866 239.852 50.143C240.72 51.8391 240.458 53.7872 239.166 55.1739C238.435 55.9531 237.532 56.423 236.469 56.5032C234.652 56.6407 233.28 55.8958 232.332 54.3488C232.286 54.28 232.252 54.1998 232.217 54.131C232.24 54.131 232.252 54.1196 232.263 54.1081Z" fill="white"/>
<path d="M177.453 64.9149C174.298 64.6144 171.102 63.4807 168.353 61.687C166.05 60.1846 165.53 59.5699 165.53 58.3362C165.53 55.864 168.252 51.5298 172.903 46.5947C175.548 43.7902 179.227 40.5031 179.624 40.5896C180.399 40.7626 186.586 46.7995 188.903 49.6359C192.569 54.134 194.256 57.8126 193.398 59.4516C192.746 60.699 188.711 63.1347 185.747 64.068C183.303 64.842 180.093 65.1698 177.453 64.9149ZM162.425 55.7684C160.515 52.8365 159.548 49.9455 159.078 45.7706C158.923 44.3911 158.978 43.6035 159.429 40.7717C159.99 37.2434 161.996 33.1641 164.413 30.651C165.443 29.5811 165.535 29.5538 166.789 29.9772C168.311 30.4916 169.935 31.6116 172.456 33.8925L173.929 35.2219L173.126 36.2099C169.392 40.7899 165.457 47.2821 163.975 51.2976C163.168 53.4784 162.845 55.6728 163.191 56.5834C163.424 57.198 163.209 56.9703 162.425 55.7684ZM195.984 56.2647C196.171 55.345 195.934 53.6514 195.373 51.9441C194.164 48.2473 190.111 41.3636 186.39 36.6879L185.218 35.2174L186.486 34.0519C188.141 32.5313 189.29 31.6207 190.53 30.8513C191.511 30.2412 192.906 29.704 193.508 29.704C193.877 29.704 195.181 31.0562 196.234 32.5358C197.867 34.8213 199.066 37.5985 199.672 40.4849C200.065 42.3515 200.096 46.3443 199.736 48.2018C199.44 49.7269 198.811 51.7074 198.2 53.055C197.739 54.0611 196.599 56.0143 196.098 56.6516C195.842 56.9703 195.842 56.9703 195.984 56.2647V56.2647ZM177.791 29.0029C176.072 28.1288 173.423 27.1955 171.959 26.9405C171.444 26.854 170.573 26.8039 170.012 26.8313C168.804 26.8904 168.859 26.8313 170.796 25.9162C172.406 25.1558 173.751 24.7097 175.575 24.3272C177.627 23.8947 181.48 23.8902 183.499 24.3181C185.679 24.778 188.246 25.734 189.691 26.6218L190.12 26.8859L189.135 26.8358C187.175 26.7356 184.32 27.5278 181.252 29.0211C180.326 29.4718 179.524 29.8315 179.464 29.8178C179.41 29.8087 178.653 29.44 177.791 29.0029V29.0029Z" fill="white"/>
<defs>
<filter id="filter0_b_214_18199" x="-135.914" y="-135.914" width="558.828" height="360.828" filterUnits="userSpaceOnUse" color-interpolation-filters="sRGB">
<feFlood flood-opacity="0" result="BackgroundImageFix"/>
<feGaussianBlur in="BackgroundImage" stdDeviation="67.957"/>
<feComposite in2="SourceAlpha" operator="in" result="effect1_backgroundBlur_214_18199"/>
<feBlend mode="normal" in="SourceGraphic" in2="effect1_backgroundBlur_214_18199" result="shape"/>
</filter>
<linearGradient id="paint0_linear_214_18199" x1="143.5" y1="-44.5" x2="93.1439" y2="117.884" gradientUnits="userSpaceOnUse">
<stop stop-color="#A9EFFF"/>
<stop offset="1" stop-color="#7C00FA"/>
</linearGradient>
</defs>
</svg>
