<svg width="92" height="18" viewBox="0 0 92 18" fill="none" xmlns="http://www.w3.org/2000/svg">
<path d="M28.2582 5.66335C28.2582 2.56454 25.7711 0 22.6489 0H16.8279C16.6692 0 16.5104 0.106856 16.4575 0.213711L14.2879 4.00709L9.10189 13.0898H5.66222C5.02721 13.0898 4.55095 12.5555 4.55095 11.9678C4.55095 11.6473 4.65678 11.4336 4.76262 11.2733L6.35016 9.08273C6.45599 8.92245 6.45599 8.70874 6.35016 8.54845L4.7097 6.35791C4.60386 6.19763 4.49803 5.98392 4.49803 5.66335C4.49803 5.02222 5.02721 4.54137 5.60931 4.54137H9.10189L11.0069 7.85389L13.5999 3.31253L11.8536 0.213711C11.7478 0.106856 11.589 0 11.4303 0H5.60931C2.54006 0 0 2.56454 0 5.66335C0 6.78534 0.317508 7.85389 0.952524 8.81559C0.317508 9.72387 0 10.8459 0 11.9678C0 15.0667 2.54006 17.6312 5.60931 17.6312H11.4303C11.589 17.6312 11.7478 17.5243 11.8007 17.4175L14.1291 13.357L19.1563 4.54137H22.596C23.231 4.54137 23.7073 5.07564 23.7073 5.66335C23.7073 5.98392 23.6014 6.19763 23.4956 6.35791L21.961 8.54845C21.8551 8.70874 21.8551 8.92245 21.961 9.08273L23.6014 11.2733C23.7073 11.4336 23.8131 11.6473 23.8131 11.9678C23.8131 12.609 23.2839 13.0898 22.7018 13.0898H19.2092L17.3042 9.77729L14.7112 14.3187L16.4575 17.4175C16.5104 17.5243 16.6692 17.6312 16.8279 17.6312H22.6489C25.7711 17.6312 28.2582 15.0667 28.2582 11.9678C28.2582 10.8459 27.9407 9.77729 27.3057 8.81559C27.9407 7.90732 28.2582 6.78534 28.2582 5.66335Z" fill="#E7E7E7"/>
<path d="M43.1605 17.8969C46.1795 17.8969 49.0778 15.5058 49.0778 11.2791V11.2308C49.0778 6.98002 46.1554 4.61309 43.1605 4.61309C41.0834 4.61309 39.755 5.67579 38.8131 7.00417V0H35.8906V17.6312H38.8131V15.6507C39.7067 16.8342 41.0351 17.8969 43.1605 17.8969ZM42.4601 15.3609C40.4796 15.3609 38.7406 13.7185 38.7406 11.2791V11.2308C38.7406 8.79144 40.4796 7.14908 42.4601 7.14908C44.4405 7.14908 46.1071 8.76729 46.1071 11.2308V11.2791C46.1071 13.791 44.4647 15.3609 42.4601 15.3609Z" fill="#E7E7E7"/>
<path d="M52.2634 17.6312H55.1859V0H52.2634V17.6312Z" fill="#E7E7E7"/>
<path d="M62.6763 17.8969C64.6326 17.8969 65.961 17.0757 66.8305 16.0371V17.6312H69.6805V10.0715C69.6805 8.405 69.2457 7.05248 68.3038 6.13469C67.4101 5.2169 65.9852 4.7097 64.0771 4.7097C62.0483 4.7097 60.6716 5.12029 59.2708 5.74825L60.0437 8.04272C61.203 7.55967 62.2657 7.24569 63.6907 7.24569C65.7436 7.24569 66.8546 8.21179 66.8546 10.0232V10.3372C65.8644 10.0232 64.85 9.80584 63.425 9.80584C60.3094 9.80584 58.1598 11.1584 58.1598 13.9117V13.96C58.1598 16.5202 60.2852 17.8969 62.6763 17.8969ZM63.4975 15.7715C62.0966 15.7715 61.0098 15.071 61.0098 13.8393V13.791C61.0098 12.4626 62.1208 11.6656 64.0047 11.6656C65.164 11.6656 66.1542 11.8829 66.9029 12.1728V13.0422C66.9029 14.6605 65.4297 15.7715 63.4975 15.7715Z" fill="#E7E7E7"/>
<path d="M77.552 17.8727C80.2088 17.8727 82.2859 16.5443 82.2859 13.8634V13.8151C82.2859 11.5207 80.1846 10.6753 78.3249 10.0957C76.8275 9.61262 75.4508 9.22618 75.4508 8.28424V8.23594C75.4508 7.51137 76.1029 6.98002 77.2381 6.98002C78.3008 6.98002 79.605 7.43891 80.8368 8.18763L81.9961 6.11054C80.6435 5.2169 78.9046 4.6614 77.3105 4.6614C74.7745 4.6614 72.7699 6.13469 72.7699 8.54992V8.59822C72.7699 11.0376 74.8711 11.8105 76.755 12.3418C78.2525 12.8007 79.605 13.1389 79.605 14.1291V14.1774C79.605 15.0227 78.8804 15.5541 77.6245 15.5541C76.3203 15.5541 74.847 15.0227 73.4461 13.9842L72.1419 15.9647C73.736 17.2206 75.7406 17.8727 77.552 17.8727Z" fill="#E7E7E7"/>
<path d="M89.3193 17.8486C90.4303 17.8486 91.2273 17.607 91.9519 17.1964V14.8054C91.3723 15.0952 90.7926 15.2401 90.1405 15.2401C89.1502 15.2401 88.5706 14.7812 88.5706 13.6461V7.39061H92.0002V4.87877H88.5706V1.37668H85.6482V4.87877H84.0299V7.39061H85.6482V14.105C85.6482 16.9066 87.1698 17.8486 89.3193 17.8486Z" fill="#E7E7E7"/>
</svg>
