<svg width="480" height="163" viewBox="0 0 480 163" fill="none" xmlns="http://www.w3.org/2000/svg">
<rect width="480" height="163" rx="20" fill="url(#paint0_linear_1_11)"/>
<g clip-path="url(#clip0_1_11)">
<path d="M211.914 72.1004C211.906 67.3057 209.997 62.7098 206.607 59.3194C203.217 55.9291 198.621 54.0207 193.826 54.0125H175.114C174.874 54.0127 174.638 54.0763 174.43 54.1967C174.222 54.3171 174.049 54.4902 173.929 54.6986L166.99 66.7177L150.281 95.7207L150.234 95.6926H139.088C138.124 95.6926 137.2 95.3099 136.518 94.6287C135.836 93.9474 135.453 93.0233 135.452 92.0594C135.448 91.282 135.698 90.5244 136.163 89.9014L141.359 82.9063C141.535 82.6703 141.63 82.3837 141.63 82.0893C141.63 81.7948 141.535 81.5082 141.359 81.2722L136.163 74.2772C135.698 73.6541 135.448 72.8966 135.452 72.1191C135.45 71.6401 135.542 71.1654 135.724 70.7223C135.906 70.2791 136.174 69.8762 136.511 69.5367C136.849 69.1971 137.251 68.9276 137.693 68.7435C138.135 68.5594 138.609 68.4645 139.088 68.4641H150.253L156.309 78.9551L164.661 64.4785L159.007 54.6861C158.887 54.4775 158.715 54.3043 158.506 54.1838C158.298 54.0634 158.062 53.9999 157.822 54H139.088C135.82 54.0009 132.613 54.8866 129.807 56.5631C127.002 58.2396 124.702 60.6444 123.153 63.5222C121.604 66.4 120.863 69.6436 121.008 72.9087C121.153 76.1738 122.18 79.3387 123.979 82.0674C122.174 84.7951 121.143 87.9609 120.995 91.228C120.847 94.4951 121.588 97.7412 123.138 100.621C124.688 103.501 126.99 105.906 129.799 107.581C132.607 109.257 135.818 110.139 139.088 110.135H157.8C158.04 110.136 158.276 110.073 158.484 109.953C158.692 109.833 158.865 109.66 158.985 109.452L166.445 96.5315L182.636 68.436L182.671 68.4547H193.801C194.765 68.4564 195.688 68.8401 196.369 69.5218C197.05 70.2034 197.433 71.1274 197.434 72.091C197.438 72.868 197.19 73.6253 196.726 74.2491L191.543 81.2535C191.367 81.4895 191.272 81.7761 191.272 82.0706C191.272 82.365 191.367 82.6516 191.543 82.8876L196.742 89.8827C197.206 90.5061 197.454 91.2636 197.45 92.0407C197.449 93.004 197.066 93.9277 196.385 94.6089C195.704 95.29 194.78 95.6731 193.817 95.6739H182.665L176.611 85.1923L168.269 99.6688L173.917 109.471C174.037 109.679 174.21 109.851 174.418 109.971C174.626 110.091 174.862 110.154 175.102 110.154H193.814C198.608 110.146 203.205 108.238 206.595 104.848C209.986 101.457 211.894 96.8606 211.901 92.0657C211.914 88.5165 210.873 85.0435 208.911 82.0861C210.879 79.1285 211.924 75.6529 211.914 72.1004V72.1004Z" fill="white"/>
<path d="M239.657 95.6053V99.6408H233.703V63.7207H239.657V77.9914C241.578 75.2845 244.281 73.1202 248.513 73.1202C254.617 73.1202 260.57 77.9415 260.57 86.6019V86.7048C260.57 95.3184 254.663 100.187 248.513 100.187C244.185 100.18 241.478 98.016 239.657 95.6053ZM254.517 86.7048V86.6081C254.517 81.5903 251.121 78.2908 247.088 78.2908C243.056 78.2908 239.507 81.6308 239.507 86.6019V86.7048C239.507 91.6758 243.05 95.0221 247.085 95.0221C251.17 95.0159 254.517 91.8162 254.517 86.7048Z" fill="white"/>
<path d="M267.062 63.7207H273.016V99.6408H267.062V63.7207Z" fill="white"/>
<path d="M279.066 92.1623V92.0625C279.066 86.4491 283.432 83.6984 289.794 83.6984C292.166 83.675 294.526 84.0406 296.78 84.7806V84.1413C296.78 80.452 294.516 78.4842 290.334 78.4842C287.43 78.4842 285.266 79.1235 282.905 80.1058L281.346 75.4279C284.406 73.9853 287.756 73.262 291.139 73.3135C295.024 73.3135 297.928 74.3458 299.749 76.2169C301.667 78.0881 302.556 80.8418 302.556 84.238V99.6376H296.73V96.3943C294.959 98.5087 292.255 100.18 288.269 100.18C283.398 100.18 279.066 97.3766 279.066 92.1623ZM296.88 90.2912V88.5198C294.987 87.8174 292.982 87.4675 290.964 87.4876C287.128 87.4876 284.864 89.1124 284.864 91.8162V91.916C284.864 94.4109 287.078 95.8516 289.932 95.8516C293.877 95.8516 296.889 93.5875 296.889 90.2912H296.88Z" fill="white"/>
<path d="M307.555 96.2446L310.212 92.2123C313.065 94.3267 316.065 95.4088 318.722 95.4088C321.283 95.4088 322.758 94.3267 322.758 92.6021V92.5023C322.758 90.4846 320.004 89.7954 316.951 88.8629C313.115 87.7807 308.843 86.2058 308.843 81.2348V81.1381C308.843 76.217 312.928 73.2137 318.092 73.2137C321.489 73.2774 324.799 74.3013 327.638 76.1671L325.268 80.4021C322.773 78.8771 320.101 77.9415 317.937 77.9415C315.623 77.9415 314.294 79.0237 314.294 80.4988V80.5986C314.294 82.5165 317.101 83.3055 320.151 84.2879C323.94 85.4699 328.219 87.1913 328.219 91.8661V91.9659C328.219 97.4266 323.99 100.134 318.576 100.134C314.575 100.081 310.702 98.7146 307.555 96.2446Z" fill="white"/>
<path d="M335.058 92.4555V78.7773H331.762V73.6597H335.058V66.5275H341.011V73.6597H348V78.7773H341.011V91.5231C341.011 93.834 342.193 94.7695 344.211 94.7695C345.495 94.7719 346.76 94.466 347.9 93.8776V98.7489C346.267 99.6725 344.412 100.132 342.536 100.077C338.158 100.084 335.058 98.1657 335.058 92.4555Z" fill="white"/>
</g>
<defs>
<linearGradient id="paint0_linear_1_11" x1="3.45247" y1="-170.656" x2="-35.3306" y2="155.901" gradientUnits="userSpaceOnUse">
<stop stop-color="#12C2EA"/>
<stop offset="1" stop-color="#7C00FA"/>
</linearGradient>
<clipPath id="clip0_1_11">
<rect width="227" height="56.138" fill="white" transform="translate(121 54)"/>
</clipPath>
</defs>
</svg>
