<svg width="21" height="21" viewBox="0 0 21 21" fill="none" xmlns="http://www.w3.org/2000/svg">
<g id="telegramm">
<g id="instagram 2" clip-path="url(#clip0_6806_60528)">
<path id="Vector" d="M10.0771 2.49982C12.7678 2.49982 13.0866 2.51006 14.1491 2.55854C15.1316 2.60338 15.6652 2.76755 16.0203 2.90551C16.4906 3.08831 16.8264 3.30672 17.179 3.65933C17.5316 4.01194 17.75 4.34767 17.9327 4.81801C18.0708 5.17314 18.235 5.70671 18.2798 6.68918C18.3283 7.75181 18.3385 8.0705 18.3385 10.7612C18.3385 13.4519 18.3283 13.7706 18.2798 14.8333C18.235 15.8157 18.0708 16.3493 17.9327 16.7045C17.75 17.1748 17.5316 17.5105 17.179 17.8632C16.8264 18.2158 16.4906 18.4341 16.0203 18.6169C15.6652 18.7549 15.1316 18.919 14.1491 18.9639C13.0867 19.0124 12.768 19.0226 10.0771 19.0226C7.38622 19.0226 7.06753 19.0124 6.0051 18.9639C5.02259 18.919 4.48902 18.7549 4.13393 18.6169C3.66355 18.4341 3.32782 18.2158 2.97521 17.8632C2.6226 17.5105 2.40419 17.1748 2.22143 16.7045C2.08342 16.3493 1.91926 15.8157 1.87442 14.8333C1.82593 13.7706 1.8157 13.4519 1.8157 10.7612C1.8157 8.0705 1.82593 7.75181 1.87442 6.68922C1.91926 5.70671 2.08342 5.17314 2.22143 4.81801C2.40419 4.34767 2.6226 4.01194 2.97521 3.65933C3.32782 3.30672 3.66355 3.08831 4.13393 2.90551C4.48902 2.76755 5.02259 2.60338 6.00506 2.55854C7.06769 2.51006 7.38638 2.49982 10.0771 2.49982ZM10.0771 0.684082C7.3403 0.684082 6.99717 0.695682 5.92233 0.744724C4.84971 0.793685 4.1172 0.96401 3.47618 1.21314C2.81352 1.47067 2.25155 1.81524 1.69133 2.37546C1.13112 2.93567 0.786543 3.49764 0.529016 4.16031C0.279888 4.80132 0.109563 5.53383 0.0606018 6.60646C0.0115604 7.68125 0 8.02442 0 10.7612C0 13.498 0.0115604 13.8412 0.0606018 14.916C0.109563 15.9886 0.279888 16.7211 0.529016 17.3621C0.786543 18.0248 1.13112 18.5868 1.69133 19.147C2.25155 19.7072 2.81352 20.0518 3.47618 20.3093C4.1172 20.5585 4.84971 20.7288 5.92233 20.7778C6.99717 20.8267 7.3403 20.8383 10.0771 20.8383C12.8139 20.8383 13.1571 20.8267 14.2318 20.7778C15.3045 20.7288 16.037 20.5585 16.678 20.3093C17.3407 20.0518 17.9026 19.7072 18.4629 19.147C19.0231 18.5868 19.3676 18.0248 19.6252 17.3621C19.8743 16.7211 20.0446 15.9886 20.0936 14.916C20.1427 13.8412 20.1542 13.498 20.1542 10.7612C20.1542 8.02442 20.1427 7.68125 20.0936 6.60646C20.0446 5.53383 19.8743 4.80132 19.6252 4.16031C19.3676 3.49764 19.0231 2.93567 18.4629 2.37546C17.9026 1.81524 17.3407 1.47067 16.678 1.21314C16.037 0.96401 15.3045 0.793685 14.2318 0.744724C13.1571 0.695682 12.8139 0.684082 10.0771 0.684082ZM10.0771 5.58647C7.21918 5.58647 4.90235 7.9033 4.90235 10.7612C4.90235 13.6192 7.21918 15.936 10.0771 15.936C12.935 15.936 15.2518 13.6192 15.2518 10.7612C15.2518 7.9033 12.935 5.58647 10.0771 5.58647ZM10.0771 14.1203C8.22196 14.1203 6.71804 12.6164 6.71804 10.7612C6.71804 8.90609 8.22196 7.40217 10.0771 7.40217C11.9322 7.40217 13.4361 8.90609 13.4361 10.7612C13.4361 12.6164 11.9322 14.1203 10.0771 14.1203ZM16.6655 5.38203C16.6655 6.04989 16.1242 6.5913 15.4563 6.5913C14.7885 6.5913 14.247 6.04989 14.247 5.38203C14.247 4.71416 14.7885 4.17278 15.4563 4.17278C16.1242 4.17278 16.6655 4.71416 16.6655 5.38203Z" fill="white"/>
</g>
</g>
<defs>
<clipPath id="clip0_6806_60528">
<rect width="20.1542" height="20.1542" fill="white" transform="translate(0 0.684082)"/>
</clipPath>
</defs>
</svg>
