<svg width="31" height="31" viewBox="0 0 31 31" fill="none" xmlns="http://www.w3.org/2000/svg">
<circle cx="15.3105" cy="15.3105" r="15.3105" fill="#272054" fill-opacity="0.6"/>
<path d="M16.858 15.3141L21.5605 10.6226C21.7664 10.4167 21.8821 10.1374 21.8821 9.84613C21.8821 9.5549 21.7664 9.2756 21.5605 9.06967C21.3546 8.86374 21.0753 8.74805 20.784 8.74805C20.4928 8.74805 20.2135 8.86374 20.0076 9.06967L15.316 13.7722L10.6245 9.06967C10.4185 8.86374 10.1392 8.74805 9.84799 8.74805C9.55676 8.74805 9.27746 8.86374 9.07153 9.06967C8.8656 9.2756 8.74991 9.5549 8.74991 9.84613C8.74991 10.1374 8.8656 10.4167 9.07153 10.6226L13.774 15.3141L9.07153 20.0057C8.96903 20.1074 8.88767 20.2283 8.83215 20.3616C8.77663 20.4949 8.74805 20.6378 8.74805 20.7822C8.74805 20.9265 8.77663 21.0695 8.83215 21.2027C8.88767 21.336 8.96903 21.457 9.07153 21.5586C9.1732 21.6611 9.29415 21.7425 9.42742 21.798C9.56068 21.8535 9.70362 21.8821 9.84799 21.8821C9.99236 21.8821 10.1353 21.8535 10.2686 21.798C10.4018 21.7425 10.5228 21.6611 10.6245 21.5586L15.316 16.8561L20.0076 21.5586C20.1092 21.6611 20.2302 21.7425 20.3635 21.798C20.4967 21.8535 20.6397 21.8821 20.784 21.8821C20.9284 21.8821 21.0713 21.8535 21.2046 21.798C21.3379 21.7425 21.4588 21.6611 21.5605 21.5586C21.663 21.457 21.7444 21.336 21.7999 21.2027C21.8554 21.0695 21.884 20.9265 21.884 20.7822C21.884 20.6378 21.8554 20.4949 21.7999 20.3616C21.7444 20.2283 21.663 20.1074 21.5605 20.0057L16.858 15.3141Z" fill="white"/>
</svg>
