<svg width="37" height="21" viewBox="0 0 37 21" fill="none" xmlns="http://www.w3.org/2000/svg">
<path d="M10.4353 0C16.1986 0 20.8702 4.68164 20.8702 10.4563C20.8702 16.231 16.1982 20.9123 10.4353 20.9123C4.67237 20.9123 0 16.231 0 10.4563C0 4.68164 4.67202 0 10.4353 0ZM27.0997 0.612505C29.9813 0.612505 32.3173 5.01929 32.3173 10.4563H32.3177C32.3177 15.892 29.9817 20.3002 27.1001 20.3002C24.2184 20.3002 21.8824 15.892 21.8824 10.4563C21.8824 5.02071 24.2181 0.612505 27.0997 0.612505ZM35.1649 1.63782C36.1782 1.63782 37 5.58593 37 10.4563C37 15.3253 36.1786 19.2749 35.1649 19.2749C34.1513 19.2749 33.3302 15.3264 33.3302 10.4563C33.3302 5.58628 34.1517 1.63782 35.1649 1.63782Z" fill="white"/>
</svg>
